<svg width="16" height="3" viewBox="0 0 16 3" fill="none" xmlns="http://www.w3.org/2000/svg">
<path d="M2.14289 2.07145C1.8273 2.07145 1.57146 1.81561 1.57146 1.50002C1.57146 1.18443 1.8273 0.928589 2.14289 0.928589" stroke="#0E1422" stroke-width="1.8" stroke-linecap="round" stroke-linejoin="round"/>
<path d="M2.14289 2.07145C2.45847 2.07145 2.71431 1.81561 2.71431 1.50002C2.71431 1.18443 2.45847 0.928589 2.14289 0.928589" stroke="#0E1422" stroke-width="1.8" stroke-linecap="round" stroke-linejoin="round"/>
<path d="M8.00003 2.07145C7.68444 2.07145 7.4286 1.81561 7.4286 1.50002C7.4286 1.18443 7.68444 0.928589 8.00003 0.928589" stroke="#0E1422" stroke-width="1.8" stroke-linecap="round" stroke-linejoin="round"/>
<path d="M8.00003 2.07145C8.31562 2.07145 8.57146 1.81561 8.57146 1.50002C8.57146 1.18443 8.31562 0.928589 8.00003 0.928589" stroke="#0E1422" stroke-width="1.8" stroke-linecap="round" stroke-linejoin="round"/>
<path d="M13.8571 2.07145C13.5415 2.07145 13.2857 1.81561 13.2857 1.50002C13.2857 1.18443 13.5415 0.928589 13.8571 0.928589" stroke="#0E1422" stroke-width="1.8" stroke-linecap="round" stroke-linejoin="round"/>
<path d="M13.8571 2.07145C14.1728 2.07145 14.4285 1.81561 14.4285 1.50002C14.4285 1.18443 14.1728 0.928589 13.8571 0.928589" stroke="#0E1422" stroke-width="1.8" stroke-linecap="round" stroke-linejoin="round"/>
</svg>
